<?xml version="1.0" encoding="utf-8"?>
<!DOCTYPE svg PUBLIC "-//W3C//DTD SVG 1.1//EN" "http://www.w3.org/Graphics/SVG/1.1/DTD/svg11.dtd">
<svg version="1.1" xmlns="http://www.w3.org/2000/svg" width="24px" height="24px" viewBox="3 0 24 24" preserveAspectRatio="xMidYMid meet">
 <g fill="#ffffff">
  <path d="M16.84 23.61 c-0.09 -0.02 -0.26 -0.08 -0.38 -0.14 -0.18 -0.09 -0.26 -0.14 -0.41 -0.30 -0.11 -0.10 -0.22 -0.25 -0.26 -0.32 -0.19 -0.34 -0.26 -0.77 -0.18 -1.13 0.10 -0.47 0.45 -0.92 0.86 -1.11 l0.11 -0.05 -0 -7.51 -0.01 -7.51 -1.56 -1.37 c-0.86 -0.75 -1.57 -1.37 -1.58 -1.37 -0.01 0 -0.02 2.27 -0.02 5.05 l0 5.04 0.16 0.08 c0.41 0.20 0.73 0.62 0.84 1.09 0.08 0.35 0 0.80 -0.18 1.11 -0.11 0.18 -0.36 0.44 -0.55 0.55 -0.48 0.30 -1.02 0.32 -1.54 0.07 -0.19 -0.09 -0.26 -0.14 -0.42 -0.31 -0.14 -0.14 -0.23 -0.26 -0.29 -0.37 -0.41 -0.79 -0.10 -1.75 0.71 -2.16 l0.17 -0.08 0 -1.86 0 -1.86 -1.36 -1.11 c-0.75 -0.61 -1.37 -1.12 -1.38 -1.12 -0.01 -0 -0.02 2.06 -0.02 4.58 l0 4.59 0.19 0.09 c0.28 0.14 0.53 0.39 0.68 0.69 0.17 0.35 0.21 0.64 0.15 0.99 -0.07 0.36 -0.22 0.63 -0.50 0.89 -0.62 0.57 -1.58 0.55 -2.18 -0.05 -0.20 -0.20 -0.30 -0.36 -0.40 -0.61 -0.06 -0.15 -0.06 -0.20 -0.06 -0.50 0 -0.36 0.02 -0.45 0.16 -0.72 0.15 -0.30 0.43 -0.57 0.73 -0.71 l0.14 -0.06 0 -5.75 0 -5.75 1.93 1.57 1.93 1.57 0.01 -3.69 0.01 -3.69 2.67 2.34 2.66 2.34 0 2.78 c0 1.53 0.01 2.78 0.02 2.78 0.01 0 0.88 -0.70 1.93 -1.56 l1.91 -1.56 0.01 4.53 0 4.53 0.21 0.10 c0.29 0.14 0.56 0.42 0.70 0.70 0.13 0.26 0.17 0.43 0.17 0.71 0 0.44 -0.14 0.79 -0.46 1.10 -0.29 0.28 -0.57 0.43 -0.96 0.48 -0.45 0.06 -0.96 -0.12 -1.30 -0.47 -0.19 -0.19 -0.31 -0.39 -0.39 -0.64 -0.05 -0.15 -0.06 -0.23 -0.06 -0.45 -0 -0.29 0.03 -0.44 0.13 -0.66 0.15 -0.33 0.42 -0.62 0.74 -0.78 l0.15 -0.08 0 -3.40 c0 -1.95 -0.01 -3.39 -0.02 -3.39 -0.01 0 -0.64 0.51 -1.39 1.12 l-1.37 1.11 0 4.24 -0 4.25 0.17 0.08 c0.46 0.22 0.76 0.59 0.89 1.08 0.07 0.26 0.05 0.60 -0.04 0.85 -0.19 0.56 -0.66 0.96 -1.25 1.07 -0.21 0.04 -0.37 0.04 -0.58 -0z m0.54 -0.70 c0.61 -0.16 0.86 -0.89 0.49 -1.40 -0.11 -0.15 -0.31 -0.29 -0.48 -0.33 -0.19 -0.04 -0.46 -0.02 -0.62 0.06 -0.18 0.09 -0.33 0.24 -0.42 0.43 -0.32 0.68 0.30 1.43 1.02 1.24z m3.82 -3.96 c0.24 -0.04 0.50 -0.25 0.62 -0.50 0.06 -0.12 0.06 -0.16 0.06 -0.37 0 -0.20 -0.01 -0.25 -0.06 -0.37 -0.27 -0.57 -1.01 -0.70 -1.44 -0.25 -0.22 0.23 -0.30 0.48 -0.24 0.76 0.04 0.19 0.10 0.31 0.24 0.47 0.13 0.14 0.31 0.24 0.49 0.26 0.12 0.02 0.16 0.02 0.34 -0.01z m-11.85 -0.53 c0.25 -0.11 0.43 -0.34 0.50 -0.60 0.10 -0.41 -0.11 -0.83 -0.50 -1.01 -0.14 -0.07 -0.18 -0.08 -0.37 -0.08 -0.18 0 -0.23 0.01 -0.35 0.06 -0.18 0.08 -0.37 0.27 -0.45 0.43 -0.08 0.16 -0.11 0.42 -0.06 0.62 0.06 0.26 0.30 0.51 0.57 0.61 0.18 0.07 0.47 0.05 0.65 -0.03z m3.83 -3.21 c0.19 -0.08 0.41 -0.29 0.48 -0.48 0.08 -0.21 0.08 -0.51 -0.01 -0.70 -0.09 -0.19 -0.25 -0.35 -0.44 -0.45 -0.14 -0.07 -0.17 -0.08 -0.38 -0.08 -0.19 0 -0.24 0.01 -0.36 0.07 -0.19 0.09 -0.37 0.27 -0.45 0.45 -0.06 0.12 -0.07 0.17 -0.07 0.37 0 0.19 0.01 0.24 0.06 0.36 0.11 0.24 0.34 0.43 0.58 0.50 0.15 0.04 0.41 0.02 0.58 -0.04z"/>
 </g>
</svg>